<svg xmlns="http://www.w3.org/2000/svg" version="1.1" xmlns:xlink="http://www.w3.org/1999/xlink" xmlns:svgjs="http://svgjs.dev/svgjs" width="1000" height="1000" viewBox="0 0 1000 1000"><rect width="1000" height="1000" fill="#ffffff"></rect><g transform="matrix(0.7,0,0,0.7,150.07466666666664,398.9265333333333)"><svg viewBox="0 0 375 108" data-background-color="#ffffff" preserveAspectRatio="xMidYMid meet" height="288" width="1000" xmlns="http://www.w3.org/2000/svg" xmlns:xlink="http://www.w3.org/1999/xlink"><g id="tight-bounds" transform="matrix(1,0,0,1,-0.03976036071776434,0.14668713378907228)"><svg viewBox="0 0 375.07952880859375 107.7066650390625" height="107.7066650390625" width="375.07952880859375"><g><svg></svg></g><g><svg viewBox="0 0 375.07952880859375 107.7066650390625" height="107.7066650390625" width="375.07952880859375"><g transform="matrix(1,0,0,1,-10.220239639282227,-72.07618713378906)"><path xmlns="http://www.w3.org/2000/svg" d="M10.22 175.124v-103.048h375.08v103.048h-35.892v-3.378h32.514v-96.292h-368.324v96.292h121.999l0 3.378z" fill="#000000" fill-rule="nonzero" stroke="none" stroke-width="1" stroke-linecap="butt" stroke-linejoin="miter" stroke-miterlimit="10" stroke-dasharray="" stroke-dashoffset="0" font-family="none" font-weight="none" font-size="none" text-anchor="none" style="mix-blend-mode: normal" data-fill-palette-color="tertiary"></path><g><path xmlns="http://www.w3.org/2000/svg" d="M148.397 176.734c-0.502 0-0.952-0.091-1.35-0.274-0.399-0.181-0.714-0.428-0.946-0.742-0.232-0.312-0.356-0.662-0.371-1.048v0h1.368c0.023 0.271 0.153 0.496 0.39 0.677 0.235 0.182 0.53 0.274 0.885 0.273v0c0.371 0 0.659-0.072 0.865-0.215 0.204-0.142 0.306-0.325 0.306-0.55v0c0-0.24-0.114-0.417-0.34-0.533-0.229-0.116-0.591-0.243-1.086-0.383v0c-0.479-0.131-0.87-0.259-1.171-0.382-0.301-0.124-0.562-0.313-0.781-0.568-0.221-0.255-0.332-0.591-0.332-1.009v0c0-0.34 0.1-0.652 0.302-0.935 0.201-0.281 0.489-0.503 0.865-0.665 0.374-0.162 0.805-0.243 1.291-0.244v0c0.727 0 1.312 0.183 1.758 0.55 0.444 0.368 0.681 0.869 0.712 1.503v0h-1.322c-0.023-0.286-0.139-0.514-0.348-0.685-0.209-0.17-0.491-0.255-0.846-0.255v0c-0.348 0-0.615 0.066-0.8 0.197-0.186 0.131-0.278 0.305-0.278 0.522v0c0 0.17 0.062 0.313 0.185 0.429 0.124 0.116 0.274 0.207 0.452 0.274 0.178 0.065 0.441 0.148 0.789 0.248v0c0.464 0.124 0.845 0.249 1.143 0.376 0.297 0.128 0.553 0.316 0.77 0.563 0.216 0.247 0.329 0.576 0.336 0.986v0c0 0.363-0.1 0.688-0.301 0.974-0.201 0.286-0.485 0.51-0.851 0.672-0.368 0.162-0.799 0.243-1.294 0.244zM158.124 173.278c0 0.24-0.015 0.456-0.046 0.65v0h-4.881c0.039 0.51 0.228 0.92 0.568 1.229 0.34 0.309 0.757 0.464 1.252 0.463v0c0.711 0 1.214-0.298 1.507-0.892v0h1.426c-0.193 0.587-0.543 1.068-1.048 1.442-0.507 0.376-1.135 0.563-1.885 0.564v0c-0.611 0-1.157-0.138-1.639-0.413-0.484-0.274-0.863-0.66-1.137-1.16-0.275-0.498-0.413-1.075-0.412-1.732v0c0-0.657 0.134-1.235 0.401-1.734 0.266-0.498 0.641-0.882 1.124-1.153 0.482-0.271 1.037-0.406 1.663-0.406v0c0.603 0 1.14 0.131 1.612 0.395 0.472 0.263 0.839 0.632 1.101 1.106 0.263 0.476 0.394 1.023 0.394 1.641zM153.208 172.861h3.537c-0.008-0.487-0.182-0.877-0.522-1.171-0.34-0.294-0.761-0.441-1.264-0.441v0c-0.456 0-0.846 0.145-1.171 0.434-0.325 0.291-0.518 0.683-0.58 1.178zM160.745 171.168c0.193-0.325 0.451-0.578 0.772-0.76 0.32-0.181 0.7-0.271 1.141-0.272v0 1.368h-0.337c-0.518 0-0.91 0.131-1.175 0.395-0.267 0.263-0.401 0.719-0.401 1.368v0 3.362h-1.322v-6.388h1.322zM164.536 170.241l1.809 5.206 1.808-5.206h1.403l-2.434 6.388h-1.577l-2.424-6.388zM171.226 169.394c-0.24 0-0.441-0.081-0.603-0.243-0.162-0.162-0.243-0.363-0.243-0.603v0c0-0.24 0.081-0.441 0.243-0.603 0.162-0.162 0.363-0.243 0.603-0.243v0c0.232 0 0.429 0.081 0.591 0.243 0.162 0.162 0.243 0.363 0.244 0.603v0c0 0.24-0.081 0.441-0.244 0.603-0.162 0.162-0.359 0.243-0.591 0.243zM170.553 170.241h1.322v6.388h-1.322zM176.838 170.136c0.502 0 0.952 0.104 1.349 0.313 0.399 0.209 0.71 0.518 0.935 0.928 0.224 0.41 0.336 0.904 0.336 1.484v0 3.768h-1.31v-3.571c0-0.572-0.143-1.011-0.429-1.317-0.286-0.305-0.676-0.457-1.171-0.457v0c-0.495 0-0.887 0.152-1.178 0.457-0.289 0.306-0.434 0.745-0.434 1.317v0 3.571h-1.322v-6.388h1.322v0.73c0.216-0.263 0.493-0.468 0.83-0.614 0.335-0.147 0.693-0.22 1.072-0.221zM183.713 170.136c0.495 0 0.933 0.098 1.315 0.295 0.383 0.198 0.683 0.444 0.9 0.737v0-0.927h1.333v6.493c0 0.587-0.124 1.112-0.371 1.572-0.247 0.459-0.604 0.82-1.071 1.083-0.468 0.263-1.027 0.394-1.677 0.394v0c-0.866 0-1.585-0.203-2.156-0.608-0.572-0.407-0.897-0.958-0.974-1.653v0h1.31c0.1 0.332 0.315 0.601 0.642 0.807 0.329 0.204 0.722 0.306 1.178 0.306v0c0.533 0 0.964-0.162 1.292-0.487 0.329-0.325 0.494-0.796 0.494-1.414v0-1.067c-0.224 0.301-0.528 0.554-0.912 0.758-0.382 0.206-0.816 0.308-1.303 0.309v0c-0.557 0-1.065-0.141-1.526-0.425-0.459-0.281-0.822-0.676-1.09-1.182-0.266-0.506-0.399-1.079-0.398-1.721v0c0-0.642 0.133-1.21 0.398-1.704 0.267-0.495 0.631-0.88 1.09-1.155 0.461-0.274 0.969-0.41 1.526-0.411zM185.928 173.429c0-0.441-0.091-0.823-0.274-1.148-0.181-0.325-0.418-0.572-0.712-0.742-0.294-0.17-0.611-0.255-0.951-0.255v0c-0.34 0-0.657 0.083-0.95 0.248-0.294 0.167-0.532 0.411-0.715 0.733-0.181 0.32-0.271 0.7-0.271 1.141v0c0 0.441 0.09 0.827 0.271 1.159 0.182 0.332 0.422 0.585 0.719 0.759 0.298 0.175 0.614 0.262 0.946 0.262v0c0.34 0 0.657-0.085 0.951-0.255 0.294-0.17 0.531-0.42 0.712-0.749 0.182-0.328 0.274-0.712 0.274-1.153zM194.334 176.734c-0.502 0-0.952-0.091-1.35-0.274-0.399-0.181-0.714-0.428-0.946-0.742-0.232-0.312-0.356-0.662-0.371-1.048v0h1.368c0.023 0.271 0.152 0.496 0.387 0.677 0.237 0.182 0.533 0.274 0.888 0.273v0c0.371 0 0.659-0.072 0.863-0.215 0.206-0.142 0.308-0.325 0.308-0.55v0c0-0.24-0.114-0.417-0.343-0.533-0.227-0.116-0.588-0.243-1.083-0.383v0c-0.479-0.131-0.87-0.259-1.171-0.382-0.301-0.124-0.563-0.313-0.783-0.568-0.22-0.255-0.329-0.591-0.33-1.009v0c0-0.34 0.1-0.652 0.302-0.935 0.201-0.281 0.489-0.503 0.862-0.665 0.376-0.162 0.807-0.243 1.294-0.244v0c0.727 0 1.312 0.183 1.756 0.55 0.445 0.368 0.683 0.869 0.714 1.503v0h-1.322c-0.023-0.286-0.139-0.514-0.348-0.685-0.209-0.17-0.491-0.255-0.846-0.255v0c-0.348 0-0.615 0.066-0.8 0.197-0.186 0.131-0.278 0.305-0.278 0.522v0c0 0.17 0.062 0.313 0.185 0.429 0.124 0.116 0.274 0.207 0.452 0.274 0.178 0.065 0.441 0.148 0.789 0.248v0c0.464 0.124 0.845 0.249 1.143 0.376 0.297 0.128 0.553 0.316 0.77 0.563 0.216 0.247 0.329 0.576 0.336 0.986v0c0 0.363-0.1 0.688-0.301 0.974-0.201 0.286-0.485 0.51-0.851 0.672-0.368 0.162-0.799 0.243-1.294 0.244zM205.487 170.241h1.299l-1.983 6.388h-1.391l-1.287-4.719-1.287 4.719h-1.391l-1.995-6.388h1.345l1.334 5.136 1.356-5.136h1.38l1.299 5.113zM208.444 169.394c-0.24 0-0.441-0.081-0.603-0.243-0.162-0.162-0.243-0.363-0.243-0.603v0c0-0.24 0.081-0.441 0.243-0.603 0.162-0.162 0.363-0.243 0.603-0.243v0c0.232 0 0.429 0.081 0.591 0.243 0.162 0.162 0.243 0.363 0.244 0.603v0c0 0.24-0.081 0.441-0.244 0.603-0.162 0.162-0.359 0.243-0.591 0.243zM207.771 170.241h1.322v6.388h-1.322zM213.511 170.241v1.078h-1.183v5.31h-1.333v-5.31h-0.754v-1.078h0.754v-0.453c0-0.734 0.196-1.27 0.586-1.606 0.39-0.335 1.002-0.503 1.837-0.504v0 1.102c-0.402 0-0.684 0.075-0.846 0.225-0.162 0.151-0.243 0.413-0.244 0.783v0 0.453zM217.777 171.319h-1.553v3.536c0 0.24 0.056 0.411 0.169 0.515 0.111 0.105 0.302 0.158 0.573 0.158v0h0.811v1.101h-1.043c-0.595 0-1.051-0.139-1.368-0.417-0.317-0.278-0.475-0.73-0.476-1.357v0-3.536h-0.753v-1.078h0.753v-1.589h1.334v1.589h1.553zM229.963 176.629h-1.727l-0.998-0.997c-0.386 0.386-0.808 0.674-1.263 0.863-0.456 0.19-0.966 0.285-1.531 0.285v0c-0.572 0-1.078-0.1-1.519-0.302-0.441-0.201-0.781-0.489-1.02-0.864-0.24-0.374-0.359-0.809-0.359-1.304v0c0-0.557 0.158-1.054 0.475-1.491 0.317-0.436 0.788-0.781 1.414-1.036v0c-0.224-0.271-0.383-0.524-0.475-0.761-0.093-0.235-0.139-0.495-0.139-0.781v0c0-0.356 0.091-0.672 0.274-0.951 0.181-0.278 0.441-0.499 0.781-0.661 0.34-0.162 0.734-0.243 1.183-0.243v0c0.456 0 0.845 0.087 1.166 0.259 0.32 0.175 0.56 0.413 0.719 0.714 0.158 0.301 0.221 0.638 0.19 1.009v0h-1.322c0.008-0.286-0.062-0.509-0.208-0.668-0.147-0.158-0.348-0.237-0.603-0.236v0c-0.255 0-0.461 0.075-0.619 0.225-0.159 0.151-0.239 0.335-0.239 0.552v0c0 0.209 0.06 0.415 0.181 0.619 0.119 0.206 0.329 0.471 0.63 0.795v0l2.134 2.122 0.823-1.357h1.426l-1.043 1.786-0.29 0.475zM224.444 175.655c0.727 0 1.368-0.298 1.925-0.893v0l-2.133-2.144c-0.912 0.363-1.368 0.912-1.369 1.646v0c0 0.394 0.147 0.724 0.441 0.99 0.294 0.267 0.672 0.401 1.136 0.401zM235.169 171.168c0.193-0.325 0.451-0.578 0.772-0.76 0.32-0.181 0.7-0.271 1.141-0.272v0 1.368h-0.336c-0.518 0-0.91 0.131-1.176 0.395-0.267 0.263-0.401 0.719-0.401 1.368v0 3.362h-1.322v-6.388h1.322zM244.155 173.278c0 0.24-0.015 0.456-0.047 0.65v0h-4.881c0.039 0.51 0.228 0.92 0.568 1.229 0.34 0.309 0.757 0.464 1.252 0.463v0c0.711 0 1.214-0.298 1.508-0.892v0h1.426c-0.193 0.587-0.543 1.068-1.048 1.442-0.507 0.376-1.135 0.563-1.886 0.564v0c-0.611 0-1.157-0.138-1.639-0.413-0.484-0.274-0.863-0.66-1.136-1.16-0.275-0.498-0.413-1.075-0.413-1.732v0c0-0.657 0.134-1.235 0.401-1.734 0.266-0.498 0.641-0.882 1.125-1.153 0.482-0.271 1.037-0.406 1.662-0.406v0c0.603 0 1.14 0.131 1.612 0.395 0.472 0.263 0.839 0.632 1.101 1.106 0.263 0.476 0.394 1.023 0.395 1.641zM239.239 172.861h3.536c-0.008-0.487-0.182-0.877-0.522-1.171-0.34-0.294-0.761-0.441-1.264-0.441v0c-0.456 0-0.846 0.145-1.171 0.434-0.325 0.291-0.518 0.683-0.579 1.178zM245.453 168.049h1.322v8.58h-1.322zM249.187 169.394c-0.24 0-0.441-0.081-0.603-0.243-0.162-0.162-0.243-0.363-0.244-0.603v0c0-0.24 0.081-0.441 0.244-0.603 0.162-0.162 0.363-0.243 0.603-0.243v0c0.232 0 0.429 0.081 0.591 0.243 0.162 0.162 0.243 0.363 0.243 0.603v0c0 0.24-0.081 0.441-0.243 0.603-0.162 0.162-0.359 0.243-0.591 0.243zM248.514 170.241h1.322v6.388h-1.322zM251.134 173.406c0-0.642 0.134-1.21 0.402-1.704 0.266-0.495 0.629-0.88 1.09-1.155 0.459-0.274 0.967-0.41 1.523-0.411v0c0.502 0 0.941 0.098 1.317 0.295 0.374 0.198 0.673 0.444 0.898 0.737v0-0.927h1.333v6.388h-1.333v-0.951c-0.224 0.301-0.529 0.553-0.916 0.754-0.386 0.201-0.827 0.301-1.322 0.302v0c-0.549 0-1.051-0.141-1.507-0.425-0.456-0.281-0.817-0.676-1.083-1.182-0.267-0.506-0.401-1.079-0.402-1.721zM256.364 173.429c0-0.441-0.09-0.823-0.272-1.148-0.182-0.325-0.42-0.572-0.714-0.742-0.294-0.17-0.611-0.255-0.951-0.255v0c-0.34 0-0.657 0.083-0.95 0.248-0.294 0.167-0.531 0.411-0.712 0.733-0.182 0.32-0.274 0.7-0.274 1.141v0c0 0.441 0.091 0.827 0.274 1.159 0.181 0.332 0.42 0.585 0.718 0.759 0.297 0.175 0.611 0.262 0.944 0.262v0c0.34 0 0.657-0.085 0.951-0.255 0.294-0.17 0.532-0.42 0.714-0.749 0.181-0.328 0.271-0.712 0.272-1.153zM260.758 171.191c0.224-0.309 0.532-0.563 0.923-0.76 0.39-0.196 0.824-0.294 1.303-0.295v0c0.564 0 1.074 0.135 1.53 0.406 0.456 0.271 0.815 0.655 1.079 1.153 0.263 0.499 0.394 1.07 0.394 1.711v0c0 0.642-0.131 1.215-0.394 1.721-0.263 0.507-0.624 0.901-1.083 1.182-0.461 0.283-0.969 0.424-1.526 0.425v0c-0.495 0-0.933-0.097-1.315-0.29-0.383-0.193-0.687-0.441-0.911-0.742v0 0.927h-1.322v-8.58h1.322zM264.642 173.406c0-0.441-0.09-0.821-0.271-1.141-0.182-0.322-0.422-0.566-0.719-0.733-0.298-0.165-0.618-0.248-0.958-0.248v0c-0.332 0-0.647 0.085-0.944 0.255-0.298 0.17-0.538 0.417-0.719 0.742-0.182 0.325-0.274 0.707-0.273 1.148v0c0 0.441 0.091 0.825 0.273 1.153 0.181 0.329 0.42 0.579 0.719 0.749 0.297 0.17 0.611 0.255 0.944 0.255v0c0.34 0 0.659-0.087 0.958-0.262 0.297-0.173 0.536-0.426 0.719-0.759 0.181-0.332 0.271-0.719 0.271-1.159zM267.297 168.049h1.322v8.58h-1.322zM276.213 173.278c0 0.24-0.015 0.456-0.046 0.65v0h-4.881c0.039 0.51 0.228 0.92 0.568 1.229 0.34 0.309 0.757 0.464 1.252 0.463v0c0.711 0 1.214-0.298 1.507-0.892v0h1.426c-0.193 0.587-0.543 1.068-1.048 1.442-0.507 0.376-1.135 0.563-1.885 0.564v0c-0.611 0-1.157-0.138-1.64-0.413-0.484-0.274-0.863-0.66-1.136-1.16-0.275-0.498-0.413-1.075-0.413-1.732v0c0-0.657 0.134-1.235 0.402-1.734 0.266-0.498 0.641-0.882 1.124-1.153 0.482-0.271 1.037-0.406 1.663-0.406v0c0.603 0 1.14 0.131 1.611 0.395 0.472 0.263 0.839 0.632 1.102 1.106 0.263 0.476 0.394 1.023 0.394 1.641zM271.297 172.861h3.536c-0.008-0.487-0.182-0.877-0.521-1.171-0.34-0.294-0.761-0.441-1.264-0.441v0c-0.456 0-0.846 0.145-1.171 0.434-0.325 0.291-0.518 0.683-0.58 1.178zM281.848 171.18c0.224-0.294 0.529-0.541 0.916-0.742 0.386-0.201 0.823-0.301 1.31-0.302v0c0.557 0 1.065 0.137 1.526 0.411 0.459 0.275 0.82 0.66 1.083 1.155 0.263 0.495 0.394 1.063 0.394 1.704v0c0 0.642-0.131 1.215-0.394 1.721-0.263 0.507-0.624 0.901-1.083 1.182-0.461 0.283-0.969 0.424-1.526 0.425v0c-0.487 0-0.92-0.099-1.298-0.297-0.379-0.196-0.688-0.441-0.928-0.735v0 3.965h-1.322v-9.426h1.322zM285.732 173.406c0-0.441-0.09-0.821-0.271-1.141-0.182-0.322-0.422-0.566-0.719-0.733-0.298-0.165-0.618-0.248-0.958-0.248v0c-0.332 0-0.647 0.085-0.944 0.255-0.298 0.17-0.538 0.417-0.718 0.742-0.182 0.325-0.274 0.707-0.274 1.148v0c0 0.441 0.091 0.825 0.274 1.153 0.181 0.329 0.42 0.579 0.718 0.749 0.297 0.17 0.611 0.255 0.944 0.255v0c0.34 0 0.659-0.087 0.958-0.262 0.297-0.173 0.536-0.426 0.719-0.759 0.181-0.332 0.271-0.719 0.271-1.159zM289.709 171.168c0.193-0.325 0.451-0.578 0.772-0.76 0.32-0.181 0.7-0.271 1.141-0.272v0 1.368h-0.336c-0.518 0-0.91 0.131-1.176 0.395-0.267 0.263-0.401 0.719-0.401 1.368v0 3.362h-1.322v-6.388h1.322zM295.611 176.734c-0.603 0-1.148-0.138-1.635-0.413-0.487-0.274-0.87-0.66-1.148-1.16-0.278-0.498-0.417-1.075-0.418-1.732v0c0-0.649 0.143-1.225 0.429-1.727 0.286-0.502 0.676-0.889 1.172-1.16 0.495-0.271 1.047-0.406 1.658-0.406v0c0.611 0 1.163 0.135 1.658 0.406 0.495 0.271 0.885 0.657 1.171 1.16 0.286 0.502 0.429 1.078 0.429 1.727v0c0 0.649-0.147 1.225-0.441 1.728-0.294 0.502-0.693 0.89-1.199 1.164-0.507 0.275-1.066 0.413-1.676 0.413zM295.611 175.586c0.34 0 0.659-0.081 0.957-0.244 0.297-0.162 0.538-0.406 0.724-0.73 0.186-0.325 0.278-0.719 0.278-1.183v0c0-0.464-0.089-0.856-0.267-1.178-0.178-0.32-0.414-0.561-0.707-0.723-0.294-0.162-0.611-0.243-0.951-0.244v0c-0.34 0-0.655 0.081-0.943 0.244-0.291 0.162-0.521 0.403-0.691 0.723-0.17 0.322-0.255 0.714-0.256 1.178v0c0 0.688 0.176 1.219 0.529 1.593 0.351 0.376 0.793 0.563 1.327 0.564zM303.332 171.319h-1.553v3.536c0 0.24 0.056 0.411 0.169 0.515 0.111 0.105 0.302 0.158 0.573 0.158v0h0.811v1.101h-1.043c-0.595 0-1.051-0.139-1.368-0.417-0.317-0.278-0.475-0.73-0.476-1.357v0-3.536h-0.753v-1.078h0.753v-1.589h1.334v1.589h1.553zM310.405 173.278c0 0.24-0.015 0.456-0.046 0.65v0h-4.882c0.039 0.51 0.228 0.92 0.568 1.229 0.34 0.309 0.757 0.464 1.253 0.463v0c0.711 0 1.214-0.298 1.507-0.892v0h1.426c-0.193 0.587-0.543 1.068-1.048 1.442-0.507 0.376-1.135 0.563-1.885 0.564v0c-0.611 0-1.157-0.138-1.64-0.413-0.484-0.274-0.863-0.66-1.136-1.16-0.275-0.498-0.413-1.075-0.413-1.732v0c0-0.657 0.134-1.235 0.401-1.734 0.266-0.498 0.641-0.882 1.125-1.153 0.482-0.271 1.037-0.406 1.663-0.406v0c0.603 0 1.14 0.131 1.611 0.395 0.472 0.263 0.839 0.632 1.102 1.106 0.263 0.476 0.394 1.023 0.394 1.641zM305.489 172.861h3.536c-0.008-0.487-0.182-0.877-0.521-1.171-0.34-0.294-0.761-0.441-1.264-0.441v0c-0.456 0-0.846 0.145-1.171 0.434-0.325 0.291-0.518 0.683-0.58 1.178zM311.263 173.429c0-0.657 0.134-1.235 0.401-1.734 0.266-0.498 0.635-0.882 1.106-1.153 0.472-0.271 1.013-0.406 1.623-0.406v0c0.773 0 1.413 0.183 1.92 0.55 0.506 0.368 0.847 0.892 1.025 1.572v0h-1.426c-0.116-0.317-0.301-0.564-0.556-0.742-0.255-0.178-0.576-0.267-0.963-0.267v0c-0.541 0-0.972 0.191-1.291 0.573-0.322 0.383-0.482 0.919-0.482 1.607v0c0 0.688 0.161 1.225 0.482 1.612 0.32 0.386 0.751 0.58 1.291 0.579v0c0.765 0 1.272-0.336 1.519-1.008v0h1.426c-0.186 0.649-0.533 1.166-1.043 1.549-0.51 0.382-1.144 0.573-1.902 0.573v0c-0.611 0-1.152-0.138-1.623-0.413-0.472-0.274-0.84-0.66-1.106-1.16-0.267-0.498-0.401-1.075-0.401-1.732zM321.756 171.319h-1.554v3.536c0 0.24 0.056 0.411 0.17 0.515 0.111 0.105 0.302 0.158 0.572 0.158v0h0.812v1.101h-1.044c-0.595 0-1.051-0.139-1.368-0.417-0.317-0.278-0.475-0.73-0.475-1.357v0-3.536h-0.754v-1.078h0.754v-1.589h1.333v1.589h1.554zM323.646 169.394c-0.24 0-0.441-0.081-0.603-0.243-0.162-0.162-0.243-0.363-0.244-0.603v0c0-0.24 0.081-0.441 0.244-0.603 0.162-0.162 0.363-0.243 0.603-0.243v0c0.232 0 0.429 0.081 0.591 0.243 0.162 0.162 0.243 0.363 0.244 0.603v0c0 0.24-0.081 0.441-0.244 0.603-0.162 0.162-0.359 0.243-0.591 0.243zM322.973 170.241h1.322v6.388h-1.322zM328.805 176.734c-0.603 0-1.148-0.138-1.635-0.413-0.487-0.274-0.87-0.66-1.147-1.16-0.278-0.498-0.417-1.075-0.418-1.732v0c0-0.649 0.143-1.225 0.429-1.727 0.286-0.502 0.676-0.889 1.171-1.16 0.495-0.271 1.047-0.406 1.658-0.406v0c0.611 0 1.163 0.135 1.658 0.406 0.495 0.271 0.885 0.657 1.171 1.16 0.286 0.502 0.429 1.078 0.429 1.727v0c0 0.649-0.147 1.225-0.44 1.728-0.294 0.502-0.693 0.89-1.199 1.164-0.507 0.275-1.066 0.413-1.677 0.413zM328.805 175.586c0.34 0 0.659-0.081 0.958-0.244 0.297-0.162 0.538-0.406 0.723-0.73 0.186-0.325 0.278-0.719 0.279-1.183v0c0-0.464-0.089-0.856-0.267-1.178-0.178-0.32-0.414-0.561-0.707-0.723-0.294-0.162-0.611-0.243-0.951-0.244v0c-0.34 0-0.655 0.081-0.944 0.244-0.291 0.162-0.521 0.403-0.691 0.723-0.17 0.322-0.255 0.714-0.255 1.178v0c0 0.688 0.176 1.219 0.529 1.593 0.351 0.376 0.793 0.563 1.326 0.564zM336.655 170.136c0.502 0 0.953 0.104 1.352 0.313 0.397 0.209 0.708 0.518 0.932 0.928 0.224 0.41 0.336 0.904 0.336 1.484v0 3.768h-1.31v-3.571c0-0.572-0.143-1.011-0.429-1.317-0.286-0.305-0.676-0.457-1.171-0.457v0c-0.495 0-0.887 0.152-1.176 0.457-0.291 0.306-0.436 0.745-0.436 1.317v0 3.571h-1.322v-6.388h1.322v0.73c0.216-0.263 0.493-0.468 0.83-0.614 0.335-0.147 0.693-0.22 1.072-0.221z" fill="#000000" fill-rule="nonzero" stroke="none" stroke-width="1" stroke-linecap="butt" stroke-linejoin="miter" stroke-miterlimit="10" stroke-dasharray="" stroke-dashoffset="0" font-family="none" font-weight="none" font-size="none" text-anchor="none" style="mix-blend-mode: normal" data-fill-palette-color="secondary"></path></g></g><g transform="matrix(1,0,0,1,29.331764404296877,35.125714475408756)"><svg viewBox="0 0 316.416 37.45523608824498" height="37.45523608824498" width="316.416"><g><svg viewBox="0 0 316.416 37.45523608824498" height="37.45523608824498" width="316.416"><g><svg viewBox="0 0 316.416 37.45523608824498" height="37.45523608824498" width="316.416"><g><svg viewBox="0 0 316.416 37.45523608824498" height="37.45523608824498" width="316.416"><g id="textblocktransform"><svg viewBox="0 0 316.416 37.45523608824498" height="37.45523608824498" width="316.416" id="textblock"><g><svg viewBox="0 0 316.416 37.45523608824498" height="37.45523608824498" width="316.416"><g transform="matrix(1,0,0,1,0,0)"><svg width="316.416" viewBox="0.45000001788139343 -35.599998474121094 303.67999267578125 35.94999694824219" height="37.45523608824498" data-palette-color="#000000"><path d="M27-35.1L36.05-35.1 23.6 0 12.9 0 0.45-35.1 9.55-35.1 18.25-8.6 27-35.1ZM61.1-28.25L48.15-28.25 48.15-21.15 59.6-21.15 59.6-14.55 48.15-14.55 48.15-6.85 61.1-6.85 61.1 0 39.6 0 39.6-35.1 61.1-35.1 61.1-28.25ZM75.2-35.1L75.2-6.6 86.4-6.6 86.4 0 66.64 0 66.64-35.1 75.2-35.1ZM107.09 0.35Q102.14 0.35 98.02-1.95 93.89-4.25 91.47-8.38 89.04-12.5 89.04-17.65L89.04-17.65Q89.04-22.8 91.47-26.9 93.89-31 98.02-33.3 102.14-35.6 107.09-35.6L107.09-35.6Q112.04-35.6 116.17-33.3 120.29-31 122.67-26.9 125.04-22.8 125.04-17.65L125.04-17.65Q125.04-12.5 122.64-8.38 120.24-4.25 116.14-1.95 112.04 0.35 107.09 0.35L107.09 0.35ZM107.09-7.45Q111.29-7.45 113.82-10.25 116.34-13.05 116.34-17.65L116.34-17.65Q116.34-22.3 113.82-25.08 111.29-27.85 107.09-27.85L107.09-27.85Q102.84-27.85 100.32-25.1 97.79-22.35 97.79-17.65L97.79-17.65Q97.79-13 100.32-10.23 102.84-7.45 107.09-7.45L107.09-7.45ZM162.54-24L153.09-24Q152.14-25.75 150.37-26.68 148.59-27.6 146.19-27.6L146.19-27.6Q142.04-27.6 139.54-24.88 137.04-22.15 137.04-17.6L137.04-17.6Q137.04-12.75 139.67-10.03 142.29-7.3 146.89-7.3L146.89-7.3Q150.04-7.3 152.22-8.9 154.39-10.5 155.39-13.5L155.39-13.5 144.54-13.5 144.54-19.8 163.14-19.8 163.14-11.85Q162.19-8.65 159.92-5.9 157.64-3.15 154.14-1.45 150.64 0.25 146.24 0.25L146.24 0.25Q141.04 0.25 136.97-2.02 132.89-4.3 130.62-8.35 128.34-12.4 128.34-17.6L128.34-17.6Q128.34-22.8 130.62-26.88 132.89-30.95 136.94-33.23 140.99-35.5 146.19-35.5L146.19-35.5Q152.49-35.5 156.82-32.45 161.14-29.4 162.54-24L162.54-24ZM167.74-35.1L176.29-35.1 176.29-14.1Q176.29-10.95 177.84-9.25 179.39-7.55 182.39-7.55L182.39-7.55Q185.39-7.55 186.99-9.25 188.59-10.95 188.59-14.1L188.59-14.1 188.59-35.1 197.14-35.1 197.14-14.15Q197.14-9.45 195.14-6.2 193.14-2.95 189.76-1.3 186.39 0.35 182.24 0.35L182.24 0.35Q178.09 0.35 174.81-1.28 171.54-2.9 169.64-6.18 167.74-9.45 167.74-14.15L167.74-14.15 167.74-35.1ZM227.09 0L224.99-6.2 211.89-6.2 209.79 0 200.84 0 213.54-35.1 223.44-35.1 236.14 0 227.09 0ZM214.14-12.8L222.79-12.8 218.44-25.65 214.14-12.8ZM267.53 0L257.88 0 250.58-13.25 248.53-13.25 248.53 0 239.98 0 239.98-35.1 254.33-35.1Q258.48-35.1 261.41-33.65 264.33-32.2 265.78-29.68 267.23-27.15 267.23-24.05L267.23-24.05Q267.23-20.55 265.26-17.8 263.28-15.05 259.43-13.9L259.43-13.9 267.53 0ZM248.53-28L248.53-19.3 253.83-19.3Q256.18-19.3 257.36-20.45 258.53-21.6 258.53-23.7L258.53-23.7Q258.53-25.7 257.36-26.85 256.18-28 253.83-28L253.83-28 248.53-28ZM285.73-35.1Q291.28-35.1 295.43-32.9 299.58-30.7 301.86-26.73 304.13-22.75 304.13-17.55L304.13-17.55Q304.13-12.4 301.86-8.4 299.58-4.4 295.41-2.2 291.23 0 285.73 0L285.73 0 272.58 0 272.58-35.1 285.73-35.1ZM285.18-7.4Q290.03-7.4 292.73-10.05 295.43-12.7 295.43-17.55L295.43-17.55Q295.43-22.4 292.73-25.1 290.03-27.8 285.18-27.8L285.18-27.8 281.13-27.8 281.13-7.4 285.18-7.4Z" opacity="1" transform="matrix(1,0,0,1,0,0)" fill="#000000" class="wordmark-text-0" data-fill-palette-color="primary" id="text-0"></path></svg></g></svg></g></svg></g></svg></g></svg></g></svg></g></svg></g></svg></g><defs></defs></svg><rect width="375.07952880859375" height="107.7066650390625" fill="none" stroke="none" visibility="hidden"></rect></g></svg></g></svg>